<?xml version="1.0" encoding="UTF-8" standalone="no"?>
<!-- Created with Inkscape (http://www.inkscape.org/) -->

<svg
   xmlns:dc="http://purl.org/dc/elements/1.1/"
   xmlns:cc="http://creativecommons.org/ns#"
   xmlns:rdf="http://www.w3.org/1999/02/22-rdf-syntax-ns#"
   xmlns:svg="http://www.w3.org/2000/svg"
   xmlns="http://www.w3.org/2000/svg"
   xmlns:sodipodi="http://sodipodi.sourceforge.net/DTD/sodipodi-0.dtd"
   xmlns:inkscape="http://www.inkscape.org/namespaces/inkscape"
   width="744.09448819"
   height="1052.3622047"
   id="svg2"
   version="1.1"
   inkscape:version="0.48.3.1 r9886"
   sodipodi:docname="servermap.svg">
  <defs
     id="defs4" />
  <sodipodi:namedview
     id="base"
     pagecolor="#ffffff"
     bordercolor="#666666"
     borderopacity="1.0"
     inkscape:pageopacity="0.0"
     inkscape:pageshadow="2"
     inkscape:zoom="0.7"
     inkscape:cx="489.00054"
     inkscape:cy="762.14065"
     inkscape:document-units="px"
     inkscape:current-layer="layer1"
     showgrid="false"
     inkscape:window-width="1600"
     inkscape:window-height="844"
     inkscape:window-x="0"
     inkscape:window-y="327"
     inkscape:window-maximized="1" />
  <metadata
     id="metadata7">
    <rdf:RDF>
      <cc:Work
         rdf:about="">
        <dc:format>image/svg+xml</dc:format>
        <dc:type
           rdf:resource="http://purl.org/dc/dcmitype/StillImage" />
        <dc:title></dc:title>
      </cc:Work>
    </rdf:RDF>
  </metadata>
  <g
     inkscape:label="Layer 1"
     inkscape:groupmode="layer"
     id="layer1">
    <path
       sodipodi:type="arc"
       style="fill:#6d1c0c;fill-opacity:1;fill-rule:nonzero;stroke:none"
       id="path3004"
       sodipodi:cx="78.286819"
       sodipodi:cy="151.81119"
       sodipodi:rx="7.5761442"
       sodipodi:ry="7.5761442"
       d="m 85.862964,151.81119 a 7.5761442,7.5761442 0 1 1 -15.152289,0 7.5761442,7.5761442 0 1 1 15.152289,0 z"
       transform="translate(46.428571,-19.642857)" />
    <path
       style="fill:#6d1c0c;fill-opacity:1;fill-rule:nonzero;stroke:none"
       d="m 124.95237,138.74118 c -6.55523,0 -11.84375,5.20924 -11.84375,11.625 0,0.16892 0.024,0.33283 0.0312,0.5 7.88542,6.12883 15.77083,5.30724 23.65625,0 0.007,-0.16717 0.0312,-0.33108 0.0312,-0.5 0,-6.41576 -5.31977,-11.625 -11.875,-11.625 z"
       id="path3006"
       inkscape:connector-curvature="0"
       sodipodi:nodetypes="ssccss" />
    <path
       sodipodi:type="arc"
       style="fill:#6d1c0c;fill-opacity:1;fill-rule:nonzero;stroke:none"
       id="path3011"
       sodipodi:cx="120.17857"
       sodipodi:cy="205.75504"
       sodipodi:rx="30.892857"
       sodipodi:ry="30.892857"
       d="m 151.07143,205.75504 a 30.892857,30.892857 0 1 1 -61.785713,0 30.892857,30.892857 0 1 1 61.785713,0 z" />
    <path
       sodipodi:type="arc"
       style="fill:#6d1c0c;fill-opacity:1;fill-rule:nonzero;stroke:none"
       id="path3004-8"
       sodipodi:cx="78.286819"
       sodipodi:cy="151.81119"
       sodipodi:rx="7.5761442"
       sodipodi:ry="7.5761442"
       d="m 85.862964,151.81119 a 7.5761442,7.5761442 0 1 1 -15.152289,0 7.5761442,7.5761442 0 1 1 15.152289,0 z"
       transform="translate(-4.9679458,1.771692)" />
    <path
       style="fill:#6d1c0c;fill-opacity:1;fill-rule:nonzero;stroke:none"
       d="m 73.555854,160.15572 c -6.55523,0 -11.84375,5.20924 -11.84375,11.625 0,0.16892 0.024,0.33283 0.0312,0.5 7.88542,6.12883 15.77083,5.30724 23.65625,0 0.007,-0.16717 0.0312,-0.33108 0.0312,-0.5 0,-6.41576 -5.31977,-11.625 -11.875,-11.625 z"
       id="path3006-3"
       inkscape:connector-curvature="0"
       sodipodi:nodetypes="ssccss" />
    <path
       sodipodi:type="arc"
       style="fill:#6d1c0c;fill-opacity:1;fill-rule:nonzero;stroke:none"
       id="path3004-8-6"
       sodipodi:cx="78.286819"
       sodipodi:cy="151.81119"
       sodipodi:rx="7.5761442"
       sodipodi:ry="7.5761442"
       d="m 85.862964,151.81119 a 7.5761442,7.5761442 0 1 1 -15.152289,0 7.5761442,7.5761442 0 1 1 15.152289,0 z"
       transform="translate(11.103482,-63.94259)" />
    <path
       style="fill:#6d1c0c;fill-opacity:1;fill-rule:nonzero;stroke:none"
       d="m 89.627283,94.441437 c -6.55523,0 -11.84375,5.20924 -11.84375,11.625003 0,0.16892 0.024,0.33283 0.0312,0.5 7.88542,6.12883 15.77083,5.30724 23.656247,0 0.007,-0.16717 0.0312,-0.33108 0.0312,-0.5 0,-6.415763 -5.319767,-11.625003 -11.874997,-11.625003 z"
       id="path3006-3-6"
       inkscape:connector-curvature="0"
       sodipodi:nodetypes="ssccss" />
    <path
       sodipodi:type="arc"
       style="fill:#6d1c0c;fill-opacity:1;fill-rule:nonzero;stroke:none"
       id="path3004-8-6-0"
       sodipodi:cx="78.286819"
       sodipodi:cy="151.81119"
       sodipodi:rx="7.5761442"
       sodipodi:ry="7.5761442"
       d="m 85.862964,151.81119 a 7.5761442,7.5761442 0 1 1 -15.152289,0 7.5761442,7.5761442 0 1 1 15.152289,0 z"
       transform="translate(72.889198,-67.871162)" />
    <path
       style="fill:none;stroke:#000000;stroke-width:1px;stroke-linecap:butt;stroke-linejoin:miter;stroke-opacity:1"
       d="M 177.78685,158.37718 352.03816,198.78328 156.57364,99.283256 363.65492,131.60814"
       id="path3392"
       inkscape:connector-curvature="0" />
    <path
       style="fill:#6d1c0c;fill-opacity:1;fill-rule:nonzero;stroke:none"
       d="m 151.413,90.51286 c -6.55523,0 -11.84375,5.20924 -11.84375,11.625 0,0.16892 0.024,0.33283 0.0312,0.5 7.88542,6.12883 15.77083,5.30724 23.65625,0 0.007,-0.16717 0.0312,-0.33108 0.0312,-0.5 0,-6.41576 -5.31977,-11.625 -11.875,-11.625 z"
       id="path3006-3-6-2"
       inkscape:connector-curvature="0"
       sodipodi:nodetypes="ssccss" />
    <path
       sodipodi:type="arc"
       style="fill:#6d1c0c;fill-opacity:1;fill-rule:nonzero;stroke:none"
       id="path3004-8-6-0-6"
       sodipodi:cx="78.286819"
       sodipodi:cy="151.81119"
       sodipodi:rx="7.5761442"
       sodipodi:ry="7.5761442"
       d="m 85.862964,151.81119 a 7.5761442,7.5761442 0 1 1 -15.152289,0 7.5761442,7.5761442 0 1 1 15.152289,0 z"
       transform="translate(94.317766,-8.2283009)" />
    <path
       style="fill:#6d1c0c;fill-opacity:1;fill-rule:nonzero;stroke:none"
       d="m 172.84157,150.15572 c -6.55523,0 -11.84375,5.20924 -11.84375,11.625 0,0.16892 0.024,0.33283 0.0312,0.5 7.88542,6.12883 15.77083,5.30724 23.65625,0 0.007,-0.16717 0.0312,-0.33108 0.0312,-0.5 0,-6.41576 -5.31977,-11.625 -11.875,-11.625 z"
       id="path3006-3-6-2-6"
       inkscape:connector-curvature="0"
       sodipodi:nodetypes="ssccss" />
    <path
       style="fill:none;stroke:#000000;stroke-width:1px;stroke-linecap:butt;stroke-linejoin:miter;stroke-opacity:1"
       d="m 646.42857,185.21932 -217.14286,-60 -25,50"
       id="path3402"
       inkscape:connector-curvature="0"
       sodipodi:nodetypes="ccc" />
    <path
       sodipodi:type="arc"
       style="fill:#009100;fill-opacity:1;fill-rule:nonzero;stroke:none"
       id="path3004-9"
       sodipodi:cx="78.286819"
       sodipodi:cy="151.81119"
       sodipodi:rx="7.5761442"
       sodipodi:ry="7.5761442"
       d="m 85.862964,151.81119 a 7.5761442,7.5761442 0 1 1 -15.152289,0 7.5761442,7.5761442 0 1 1 15.152289,0 z"
       transform="translate(324.24485,10.512705)" />
    <path
       style="fill:none;stroke:#000000;stroke-width:1px;stroke-linecap:butt;stroke-linejoin:miter;stroke-opacity:1"
       d="m 312.14286,393.07647 155,22.14285 51.42857,-22.85714"
       id="path3396"
       inkscape:connector-curvature="0" />
    <path
       style="fill:none;stroke:#000000;stroke-width:1px;stroke-linecap:butt;stroke-linejoin:miter;stroke-opacity:1"
       d="M 550,196.6479 467.85714,415.93361"
       id="path3398"
       inkscape:connector-curvature="0" />
    <path
       style="fill:none;stroke:#000000;stroke-width:1px;stroke-linecap:butt;stroke-linejoin:miter;stroke-opacity:1"
       d="m 453.57143,189.50504 92.85714,6.42857 -27.14286,197.14286"
       id="path3394"
       inkscape:connector-curvature="0" />
    <path
       style="fill:#009100;fill-opacity:1;fill-rule:nonzero;stroke:none"
       d="m 402.76865,168.89674 c -6.55523,0 -11.84375,5.20924 -11.84375,11.625 0,0.16892 0.024,0.33283 0.0312,0.5 7.88542,6.12883 15.77083,5.30724 23.65625,0 0.007,-0.16717 0.0312,-0.33108 0.0312,-0.5 0,-6.41576 -5.31977,-11.625 -11.875,-11.625 z"
       id="path3006-9"
       inkscape:connector-curvature="0"
       sodipodi:nodetypes="ssccss" />
    <path
       transform="translate(277.81627,30.155562)"
       sodipodi:type="arc"
       style="fill:#009100;fill-opacity:1;fill-rule:nonzero;stroke:none"
       id="path3011-3"
       sodipodi:cx="120.17857"
       sodipodi:cy="205.75504"
       sodipodi:rx="30.892857"
       sodipodi:ry="30.892857"
       d="m 151.07143,205.75504 a 30.892857,30.892857 0 1 1 -61.785713,0 30.892857,30.892857 0 1 1 61.785713,0 z" />
    <path
       sodipodi:type="arc"
       style="fill:#009100;fill-opacity:1;fill-rule:nonzero;stroke:none"
       id="path3004-8-4"
       sodipodi:cx="78.286819"
       sodipodi:cy="151.81119"
       sodipodi:rx="7.5761442"
       sodipodi:ry="7.5761442"
       d="m 85.862964,151.81119 a 7.5761442,7.5761442 0 1 1 -15.152289,0 7.5761442,7.5761442 0 1 1 15.152289,0 z"
       transform="translate(272.84833,31.927254)" />
    <path
       style="fill:#009100;fill-opacity:1;fill-rule:nonzero;stroke:none"
       d="m 351.37213,190.31128 c -6.55523,0 -11.84375,5.20924 -11.84375,11.625 0,0.16892 0.024,0.33283 0.0312,0.5 7.88542,6.12883 15.77083,5.30724 23.65625,0 0.007,-0.16717 0.0312,-0.33108 0.0312,-0.5 0,-6.41576 -5.31977,-11.625 -11.875,-11.625 z"
       id="path3006-3-9"
       inkscape:connector-curvature="0"
       sodipodi:nodetypes="ssccss" />
    <path
       sodipodi:type="arc"
       style="fill:#009100;fill-opacity:1;fill-rule:nonzero;stroke:none"
       id="path3004-8-6-5"
       sodipodi:cx="78.286819"
       sodipodi:cy="151.81119"
       sodipodi:rx="7.5761442"
       sodipodi:ry="7.5761442"
       d="m 85.862964,151.81119 a 7.5761442,7.5761442 0 1 1 -15.152289,0 7.5761442,7.5761442 0 1 1 15.152289,0 z"
       transform="translate(288.91976,-33.787026)" />
    <path
       style="fill:#009100;fill-opacity:1;fill-rule:nonzero;stroke:none"
       d="m 367.44356,124.597 c -6.55523,0 -11.84375,5.20924 -11.84375,11.625 0,0.16892 0.024,0.33283 0.0312,0.5 7.88542,6.12883 15.77083,5.30724 23.65625,0 0.007,-0.16717 0.0312,-0.33108 0.0312,-0.5 0,-6.41576 -5.31977,-11.625 -11.875,-11.625 z"
       id="path3006-3-6-22"
       inkscape:connector-curvature="0"
       sodipodi:nodetypes="ssccss" />
    <path
       sodipodi:type="arc"
       style="fill:#009100;fill-opacity:1;fill-rule:nonzero;stroke:none"
       id="path3004-8-6-0-3"
       sodipodi:cx="78.286819"
       sodipodi:cy="151.81119"
       sodipodi:rx="7.5761442"
       sodipodi:ry="7.5761442"
       d="m 85.862964,151.81119 a 7.5761442,7.5761442 0 1 1 -15.152289,0 7.5761442,7.5761442 0 1 1 15.152289,0 z"
       transform="translate(350.70547,-37.715596)" />
    <path
       style="fill:#009100;fill-opacity:1;fill-rule:nonzero;stroke:none"
       d="m 429.22928,120.66842 c -6.55523,0 -11.84375,5.20924 -11.84375,11.625 0,0.16892 0.024,0.33283 0.0312,0.5 7.88542,6.12883 15.77083,5.30724 23.65625,0 0.007,-0.16717 0.0312,-0.33108 0.0312,-0.5 0,-6.41576 -5.31977,-11.625 -11.875,-11.625 z"
       id="path3006-3-6-2-3"
       inkscape:connector-curvature="0"
       sodipodi:nodetypes="ssccss" />
    <path
       sodipodi:type="arc"
       style="fill:#009100;fill-opacity:1;fill-rule:nonzero;stroke:none"
       id="path3004-8-6-0-6-2"
       sodipodi:cx="78.286819"
       sodipodi:cy="151.81119"
       sodipodi:rx="7.5761442"
       sodipodi:ry="7.5761442"
       d="m 85.862964,151.81119 a 7.5761442,7.5761442 0 1 1 -15.152289,0 7.5761442,7.5761442 0 1 1 15.152289,0 z"
       transform="translate(372.13404,21.927262)" />
    <path
       style="fill:#009100;fill-opacity:1;fill-rule:nonzero;stroke:none"
       d="m 450.65785,180.31128 c -6.55523,0 -11.84375,5.20924 -11.84375,11.625 0,0.16892 0.024,0.33283 0.0312,0.5 7.88542,6.12883 15.77083,5.30724 23.65625,0 0.007,-0.16717 0.0312,-0.33108 0.0312,-0.5 0,-6.41576 -5.31977,-11.625 -11.875,-11.625 z"
       id="path3006-3-6-2-6-9"
       inkscape:connector-curvature="0"
       sodipodi:nodetypes="ssccss" />
    <path
       sodipodi:type="arc"
       style="fill:#ff6600;fill-opacity:1;fill-rule:nonzero;stroke:none"
       id="path3004-9-8"
       sodipodi:cx="78.286819"
       sodipodi:cy="151.81119"
       sodipodi:rx="7.5761442"
       sodipodi:ry="7.5761442"
       d="m 85.862964,151.81119 a 7.5761442,7.5761442 0 1 1 -15.152289,0 7.5761442,7.5761442 0 1 1 15.152289,0 z"
       transform="translate(186.8641,219.61428)" />
    <path
       style="fill:#ff6600;fill-opacity:1;fill-rule:nonzero;stroke:none"
       d="m 265.3879,377.99832 c -6.55523,0 -11.84375,5.20924 -11.84375,11.625 0,0.16892 0.024,0.33283 0.0312,0.5 7.88542,6.12883 15.77083,5.30724 23.65625,0 0.007,-0.16717 0.0312,-0.33108 0.0312,-0.5 0,-6.41576 -5.31977,-11.625 -11.875,-11.625 z"
       id="path3006-9-9"
       inkscape:connector-curvature="0"
       sodipodi:nodetypes="ssccss" />
    <path
       transform="translate(140.43552,239.25714)"
       sodipodi:type="arc"
       style="fill:#ff6600;fill-opacity:1;fill-rule:nonzero;stroke:none"
       id="path3011-3-8"
       sodipodi:cx="120.17857"
       sodipodi:cy="205.75504"
       sodipodi:rx="30.892857"
       sodipodi:ry="30.892857"
       d="m 151.07143,205.75504 a 30.892857,30.892857 0 1 1 -61.785713,0 30.892857,30.892857 0 1 1 61.785713,0 z" />
    <path
       sodipodi:type="arc"
       style="fill:#ff6600;fill-opacity:1;fill-rule:nonzero;stroke:none"
       id="path3004-8-4-4"
       sodipodi:cx="78.286819"
       sodipodi:cy="151.81119"
       sodipodi:rx="7.5761442"
       sodipodi:ry="7.5761442"
       d="m 85.862964,151.81119 a 7.5761442,7.5761442 0 1 1 -15.152289,0 7.5761442,7.5761442 0 1 1 15.152289,0 z"
       transform="translate(135.46758,241.02883)" />
    <path
       style="fill:#ff6600;fill-opacity:1;fill-rule:nonzero;stroke:none"
       d="m 213.99138,399.41286 c -6.55523,0 -11.84375,5.20924 -11.84375,11.625 0,0.16892 0.024,0.33283 0.0312,0.5 7.88542,6.12883 15.77083,5.30724 23.65625,0 0.007,-0.16717 0.0312,-0.33108 0.0312,-0.5 0,-6.41576 -5.31977,-11.625 -11.875,-11.625 z"
       id="path3006-3-9-8"
       inkscape:connector-curvature="0"
       sodipodi:nodetypes="ssccss" />
    <path
       sodipodi:type="arc"
       style="fill:#ff6600;fill-opacity:1;fill-rule:nonzero;stroke:none"
       id="path3004-8-6-5-3"
       sodipodi:cx="78.286819"
       sodipodi:cy="151.81119"
       sodipodi:rx="7.5761442"
       sodipodi:ry="7.5761442"
       d="m 85.862964,151.81119 a 7.5761442,7.5761442 0 1 1 -15.152289,0 7.5761442,7.5761442 0 1 1 15.152289,0 z"
       transform="translate(151.53901,175.31455)" />
    <path
       style="fill:#ff6600;fill-opacity:1;fill-rule:nonzero;stroke:none"
       d="m 230.06281,333.69858 c -6.55523,0 -11.84375,5.20924 -11.84375,11.625 0,0.16892 0.024,0.33283 0.0312,0.5 7.88542,6.12883 15.77083,5.30724 23.65625,0 0.007,-0.16717 0.0312,-0.33108 0.0312,-0.5 0,-6.41576 -5.31977,-11.625 -11.875,-11.625 z"
       id="path3006-3-6-22-8"
       inkscape:connector-curvature="0"
       sodipodi:nodetypes="ssccss" />
    <path
       sodipodi:type="arc"
       style="fill:#ff6600;fill-opacity:1;fill-rule:nonzero;stroke:none"
       id="path3004-8-6-0-3-8"
       sodipodi:cx="78.286819"
       sodipodi:cy="151.81119"
       sodipodi:rx="7.5761442"
       sodipodi:ry="7.5761442"
       d="m 85.862964,151.81119 a 7.5761442,7.5761442 0 1 1 -15.152289,0 7.5761442,7.5761442 0 1 1 15.152289,0 z"
       transform="translate(213.32472,171.38598)" />
    <path
       style="fill:#ff6600;fill-opacity:1;fill-rule:nonzero;stroke:none"
       d="m 291.84853,329.77 c -6.55523,0 -11.84375,5.20924 -11.84375,11.625 0,0.16892 0.024,0.33283 0.0312,0.5 7.88542,6.12883 15.77083,5.30724 23.65625,0 0.007,-0.16717 0.0312,-0.33108 0.0312,-0.5 0,-6.41576 -5.31977,-11.625 -11.875,-11.625 z"
       id="path3006-3-6-2-3-1"
       inkscape:connector-curvature="0"
       sodipodi:nodetypes="ssccss" />
    <path
       sodipodi:type="arc"
       style="fill:#ff6600;fill-opacity:1;fill-rule:nonzero;stroke:none"
       id="path3004-8-6-0-6-2-8"
       sodipodi:cx="78.286819"
       sodipodi:cy="151.81119"
       sodipodi:rx="7.5761442"
       sodipodi:ry="7.5761442"
       d="m 85.862964,151.81119 a 7.5761442,7.5761442 0 1 1 -15.152289,0 7.5761442,7.5761442 0 1 1 15.152289,0 z"
       transform="translate(234.75329,231.02884)" />
    <path
       style="fill:#ff6600;fill-opacity:1;fill-rule:nonzero;stroke:none"
       d="m 313.2771,389.41286 c -6.55523,0 -11.84375,5.20924 -11.84375,11.625 0,0.16892 0.024,0.33283 0.0312,0.5 7.88542,6.12883 15.77083,5.30724 23.65625,0 0.007,-0.16717 0.0312,-0.33108 0.0312,-0.5 0,-6.41576 -5.31977,-11.625 -11.875,-11.625 z"
       id="path3006-3-6-2-6-9-0"
       inkscape:connector-curvature="0"
       sodipodi:nodetypes="ssccss" />
    <path
       style="fill:none;stroke:#000000;stroke-width:1px;stroke-linecap:butt;stroke-linejoin:miter;stroke-opacity:1"
       d="M 650,187.36218 567.85714,403.07647"
       id="path3400"
       inkscape:connector-curvature="0" />
    <path
       transform="translate(476.20206,30.032385)"
       sodipodi:type="arc"
       style="fill:#ba00ff;fill-opacity:1;fill-rule:nonzero;stroke:none"
       id="path3011-3-8-8"
       sodipodi:cx="120.17857"
       sodipodi:cy="205.75504"
       sodipodi:rx="30.892857"
       sodipodi:ry="30.892857"
       d="m 151.07143,205.75504 a 30.892857,30.892857 0 1 1 -61.785713,0 30.892857,30.892857 0 1 1 61.785713,0 z" />
    <path
       sodipodi:type="arc"
       style="fill:#ba00ff;fill-opacity:1;fill-rule:nonzero;stroke:none"
       id="path3004-8-4-4-0"
       sodipodi:cx="78.286819"
       sodipodi:cy="151.81119"
       sodipodi:rx="7.5761442"
       sodipodi:ry="7.5761442"
       d="m 85.862964,151.81119 a 7.5761442,7.5761442 0 1 1 -15.152289,0 7.5761442,7.5761442 0 1 1 15.152289,0 z"
       transform="translate(471.23412,31.804075)" />
    <path
       style="fill:#ba00ff;fill-opacity:1;fill-rule:nonzero;stroke:none"
       d="m 549.75792,190.18811 c -6.55523,0 -11.84375,5.20924 -11.84375,11.625 0,0.16892 0.024,0.33283 0.0312,0.5 7.88542,6.12884 15.77083,5.30725 23.65625,0 0.007,-0.16717 0.0312,-0.33108 0.0312,-0.5 0,-6.41576 -5.31977,-11.625 -11.875,-11.625 z"
       id="path3006-3-9-8-2"
       inkscape:connector-curvature="0"
       sodipodi:nodetypes="ssccss" />
    <path
       sodipodi:type="arc"
       style="fill:#ba00ff;fill-opacity:1;fill-rule:nonzero;stroke:none"
       id="path3004-8-6-0-6-2-8-6"
       sodipodi:cx="78.286819"
       sodipodi:cy="151.81119"
       sodipodi:rx="7.5761442"
       sodipodi:ry="7.5761442"
       d="m 85.862964,151.81119 a 7.5761442,7.5761442 0 1 1 -15.152289,0 7.5761442,7.5761442 0 1 1 15.152289,0 z"
       transform="translate(570.51983,21.804085)" />
    <path
       style="fill:#ba00ff;fill-opacity:1;fill-rule:nonzero;stroke:none"
       d="m 649.04364,180.18811 c -6.55523,0 -11.84375,5.20924 -11.84375,11.625 0,0.16892 0.024,0.33283 0.0312,0.5 7.88542,6.12883 15.77083,5.30724 23.65625,0 0.007,-0.16717 0.0312,-0.33108 0.0312,-0.5 0,-6.41576 -5.31977,-11.625 -11.875,-11.625 z"
       id="path3006-3-6-2-6-9-0-4"
       inkscape:connector-curvature="0"
       sodipodi:nodetypes="ssccss" />
    <path
       sodipodi:type="arc"
       style="fill:#804d00;fill-opacity:1;fill-rule:nonzero;stroke:none"
       id="path3004-9-6"
       sodipodi:cx="78.286819"
       sodipodi:cy="151.81119"
       sodipodi:rx="7.5761442"
       sodipodi:ry="7.5761442"
       d="m 85.862964,151.81119 a 7.5761442,7.5761442 0 1 1 -15.152289,0 7.5761442,7.5761442 0 1 1 15.152289,0 z"
       transform="translate(441.42254,228.70565)" />
    <path
       style="fill:#804d00;fill-opacity:1;fill-rule:nonzero;stroke:none"
       d="m 519.94634,387.08969 c -6.55523,0 -11.84375,5.20924 -11.84375,11.625 0,0.16892 0.024,0.33283 0.0312,0.5 7.88542,6.12883 15.77083,5.30724 23.65625,0 0.007,-0.16717 0.0312,-0.33108 0.0312,-0.5 0,-6.41576 -5.31977,-11.625 -11.875,-11.625 z"
       id="path3006-9-7"
       inkscape:connector-curvature="0"
       sodipodi:nodetypes="ssccss" />
    <path
       transform="translate(394.99396,248.34851)"
       sodipodi:type="arc"
       style="fill:#804d00;fill-opacity:1;fill-rule:nonzero;stroke:none"
       id="path3011-3-1"
       sodipodi:cx="120.17857"
       sodipodi:cy="205.75504"
       sodipodi:rx="30.892857"
       sodipodi:ry="30.892857"
       d="m 151.07143,205.75504 a 30.892857,30.892857 0 1 1 -61.785713,0 30.892857,30.892857 0 1 1 61.785713,0 z" />
    <path
       sodipodi:type="arc"
       style="fill:#804d00;fill-opacity:1;fill-rule:nonzero;stroke:none"
       id="path3004-8-4-1"
       sodipodi:cx="78.286819"
       sodipodi:cy="151.81119"
       sodipodi:rx="7.5761442"
       sodipodi:ry="7.5761442"
       d="m 85.862964,151.81119 a 7.5761442,7.5761442 0 1 1 -15.152289,0 7.5761442,7.5761442 0 1 1 15.152289,0 z"
       transform="translate(390.02602,250.1202)" />
    <path
       style="fill:#804d00;fill-opacity:1;fill-rule:nonzero;stroke:none"
       d="m 468.54982,408.50423 c -6.55523,0 -11.84375,5.20924 -11.84375,11.625 0,0.16892 0.024,0.33283 0.0312,0.5 7.88542,6.12883 15.77083,5.30724 23.65625,0 0.007,-0.16717 0.0312,-0.33108 0.0312,-0.5 0,-6.41576 -5.31977,-11.625 -11.875,-11.625 z"
       id="path3006-3-9-1"
       inkscape:connector-curvature="0"
       sodipodi:nodetypes="ssccss" />
    <path
       sodipodi:type="arc"
       style="fill:#804d00;fill-opacity:1;fill-rule:nonzero;stroke:none"
       id="path3004-8-6-0-6-2-4"
       sodipodi:cx="78.286819"
       sodipodi:cy="151.81119"
       sodipodi:rx="7.5761442"
       sodipodi:ry="7.5761442"
       d="m 85.862964,151.81119 a 7.5761442,7.5761442 0 1 1 -15.152289,0 7.5761442,7.5761442 0 1 1 15.152289,0 z"
       transform="translate(489.31173,240.12021)" />
    <path
       style="fill:#804d00;fill-opacity:1;fill-rule:nonzero;stroke:none"
       d="m 567.83554,398.50423 c -6.55523,0 -11.84375,5.20924 -11.84375,11.625 0,0.16892 0.024,0.33283 0.0312,0.5 7.88542,6.12883 15.77083,5.30724 23.65625,0 0.007,-0.16717 0.0312,-0.33108 0.0312,-0.5 0,-6.41576 -5.31977,-11.625 -11.875,-11.625 z"
       id="path3006-3-6-2-6-9-4"
       inkscape:connector-curvature="0"
       sodipodi:nodetypes="ssccss" />
    <text
       xml:space="preserve"
       style="font-size:37.45613861px;font-style:normal;font-weight:normal;line-height:125%;letter-spacing:0px;word-spacing:0px;fill:#ffffff;fill-opacity:1;stroke:none;font-family:Sans"
       x="106.96741"
       y="218.01849"
       id="text3404"
       sodipodi:linespacing="125%"><tspan
         sodipodi:role="line"
         id="tspan3406"
         x="106.96741"
         y="218.01849">A</tspan></text>
    <text
       xml:space="preserve"
       style="font-size:37.45613861px;font-style:normal;font-weight:normal;line-height:125%;letter-spacing:0px;word-spacing:0px;fill:#ffffff;fill-opacity:1;stroke:none;font-family:Sans"
       x="386.48331"
       y="248.15787"
       id="text3404-1"
       sodipodi:linespacing="125%"><tspan
         sodipodi:role="line"
         id="tspan3406-0"
         x="386.48331"
         y="248.15787">B</tspan></text>
    <text
       xml:space="preserve"
       style="font-size:37.45613861px;font-style:normal;font-weight:normal;line-height:125%;letter-spacing:0px;word-spacing:0px;fill:#ffffff;fill-opacity:1;stroke:none;font-family:Sans"
       x="245.92551"
       y="457.80072"
       id="text3404-1-4"
       sodipodi:linespacing="125%"><tspan
         sodipodi:role="line"
         id="tspan3406-0-7"
         x="245.92551"
         y="457.80072">C</tspan></text>
  </g>
</svg>
